<?xml version="1.0" encoding="UTF-8" standalone="no"?>
<!-- Created with Inkscape (http://www.inkscape.org/) -->

<svg width="100" height="100" viewBox="5 -10 100 135">
  <path d="m 92.425448,-7.5842945 c -7.675747,0 -13.900227,6.2244801 -13.900227,13.9031295 0,0.2496178 0,20.806803 0,20.806803 -6.874648,-3.48449 -14.644727,-5.462566 -22.880663,-5.462566 -8.234484,0 -16.003112,1.976625 -22.876309,5.461115 0,0 0,-20.5571855 0,-20.8068033 0,-7.6786493 -6.225932,-13.9031295 -13.904581,-13.9031295 -7.677198,0 -13.900227,6.2244802 -13.900227,13.9031295 0,0.2496178 0,66.6102153 0,66.6102153 l 0.01451,-0.01016 c 0.309119,27.727891 22.8676,50.112221 50.666604,50.112221 27.799004,0 50.360385,-22.38433 50.669505,-50.109319 l 0.0145,0.01016 c 0,0 0,-66.3620482 0,-66.6102148 0,-7.6801006 -6.22593,-13.9045807 -13.903128,-13.9045807 z" />
</svg>
